<svg xmlns="http://www.w3.org/2000/svg" version="1.1" xmlns:xlink="http://www.w3.org/1999/xlink" width="1000" height="1000"><metadata><rdf:RDF xmlns:rdf="http://www.w3.org/1999/02/22-rdf-syntax-ns#" xmlns:dc="http://purl.org/dc/elements/1.1/"><rdf:Description><dc:creator>RealFaviconGenerator</dc:creator><dc:source>https://realfavicongenerator.net</dc:source></rdf:Description></rdf:RDF></metadata><g clip-path="url(#SvgjsClipPath1009)"><rect width="1000" height="1000" fill="#ffffff"></rect><g transform="matrix(7,0,0,7,150,150)"><svg xmlns="http://www.w3.org/2000/svg" viewBox="0 0 512 512" width="100%" height="100%"><rect width="512" height="512" rx="128" fill="#0f172a"></rect><g transform="translate(256, 270)">
    <!-- Bottom Layer (Foundation Data) -->
    <path d="M 0 100 L 130 35 L 0 -30 L -130 35 Z" fill="#047857"></path>
    <path d="M -130 35 L 0 100 L 0 125 L -130 60 Z" fill="#065f46"></path>
    <path d="M 0 100 L 130 35 L 130 60 L 0 125 Z" fill="#064e3b"></path>

    <!-- Middle Layer (Growth Tracker) -->
    <path d="M 0 30 L 130 -35 L 0 -100 L -130 -35 Z" fill="#10b981"></path>
    <path d="M -130 -35 L 0 30 L 0 55 L -130 -10 Z" fill="#059669"></path>
    <path d="M 0 30 L 130 -35 L 130 -10 L 0 55 Z" fill="#047857"></path>

    <!-- Top Layer (Peak/Current Balance) -->
    <path d="M 0 -40 L 130 -105 L 0 -170 L -130 -105 Z" fill="#34d399"></path>
    <path d="M -130 -105 L 0 -40 L 0 -15 L -130 -80 Z" fill="#10b981"></path>
    <path d="M 0 -40 L 130 -105 L 130 -80 L 0 -15 Z" fill="#059669"></path>
  </g></svg></g></g><defs><clipPath id="SvgjsClipPath1009"><rect width="1000" height="1000" x="0" y="0" rx="350" ry="350"></rect></clipPath></defs></svg>